# xmcd
#
# Track frame offsets:
#	150
#	13203
#	30308
#	48713
#	64190
#	75873
#	87340
#	104930
#	122878
#	137583
#	154658
#	172303
#	188875
#	203918
#	219713
#	235945
#	253960
#	270903
#	285700
#	302188
#
# Disc length: 4209 seconds
#
# Revision: 1
# Processed by: cddbd v1.4PL0 Copyright (c) Steve Scherf et al.
# Submitted via: audiograbber 1.82.02
#
DISCID=2b106f14
DTITLE=Top Hits USA RC-30 - RC-30
DYEAR=1900
DGENRE=
TTITLE0=Clint Black  - Summer's Comin'
TTITLE1=Sawyer Brown - I Don't Believe In Goodbye
TTITLE2=Patty Loveless - You Don't Even Know Who I Am
TTITLE3=Wade Hayes - I'm Still Dancin' With You
TTITLE4=John Michael Montgomery - Sold (Grundy County Auction Incident)
TTITLE5=Toby Keith  - You Ain't Much Fun
TTITLE6=Shaina Twain - Whose Bed  Have Your Boots Been Under? 
TTITLE7=Blackhawk - That's Just About Right
TTITLE8=Tracy Lawence - Texas Tornado 
TTITLE9=Travis Tritt - Tell Me I Was Dreaming
TTITLE10=Allison Krauss And Union Station - When You Say nothing At All
TTITLE11=George Strait - Adalida
TTITLE12=John Berry - Standing On The Edge Of Goodbye
TTITLE13=Doug Stone - Faith In Me Faith I You
TTITLE14=Vince Gill - You Better Think Twice (Single Version)
TTITLE15=Collin Raye - If I We're You
TTITLE16=Lari White - That's How You Know ( When You're In Love)
TTITLE17=Neal McCoy - They're Playing Our Song
TTITLE18=Ty Herndon - That Mattered Most
TTITLE19=Hal Ketchum - Stay Forever
EXTD=
EXTT0=
EXTT1=
EXTT2=
EXTT3=
EXTT4=
EXTT5=
EXTT6=
EXTT7=
EXTT8=
EXTT9=
EXTT10=
EXTT11=
EXTT12=
EXTT13=
EXTT14=
EXTT15=
EXTT16=
EXTT17=
EXTT18=
EXTT19=
PLAYORDER=
